<?xml version="1.0" standalone="no"?>
<!DOCTYPE svg PUBLIC "-//W3C//DTD SVG 20010904//EN"
 "http://www.w3.org/TR/2001/REC-SVG-20010904/DTD/svg10.dtd">
<svg version="1.0" xmlns="http://www.w3.org/2000/svg"
 width="500.000000pt" height="500.000000pt" viewBox="0 0 500.000000 500.000000"
 preserveAspectRatio="xMidYMid meet">

<g transform="translate(0.000000,500.000000) scale(0.100000,-0.100000)"
fill="#000000" stroke="none">
<path d="M1150 2529 l0 -1811 618 5 c391 3 646 9 697 16 235 35 487 123 678
237 194 117 434 338 559 514 258 364 361 835 293 1335 -51 369 -214 693 -485
965 -270 271 -569 433 -937 509 -159 33 -338 41 -900 41 l-523 0 0 -1811z
m1217 1042 c316 -79 569 -310 689 -627 94 -251 90 -593 -12 -851 -54 -138
-128 -248 -237 -356 -193 -188 -426 -277 -723 -277 l-114 0 0 1071 0 1072 158
-6 c109 -4 182 -12 239 -26z"/>
</g>
</svg>
