<?xml version="1.0" encoding="iso-8859-1"?>
<!-- Generator: Adobe Illustrator 16.0.0, SVG Export Plug-In . SVG Version: 6.00 Build 0)  -->
<!DOCTYPE svg PUBLIC "-//W3C//DTD SVG 1.1//EN" "http://www.w3.org/Graphics/SVG/1.1/DTD/svg11.dtd">
<svg version="1.1" id="Capa_1" xmlns="http://www.w3.org/2000/svg" xmlns:xlink="http://www.w3.org/1999/xlink" x="0px" y="0px"
	 width="96.979px" height="96.979px" viewBox="0 0 96.979 96.979" style="enable-background:new 0 0 96.979 96.979;"
	 xml:space="preserve">
<g>
	<g>
		<path d="M59.07,46.021L59.07,46.021c4.576-3.373,7.31-8.754,7.31-14.393c0-9.863-8.025-17.889-17.89-17.889
			c-9.864,0-17.889,8.025-17.889,17.889c0,5.717,2.66,10.959,7.297,14.385c-18.244,6.451-21.092,28.71-21.531,35.378
			c-0.031,0.479,0.137,0.949,0.465,1.3c0.328,0.35,0.785,0.549,1.264,0.549h60.788c0.479,0,0.938-0.199,1.266-0.549
			c0.328-0.351,0.496-0.82,0.465-1.3C80.175,74.736,77.32,52.511,59.07,46.021z"/>
		<path d="M82.761,46.861c3.02-2.227,4.821-5.779,4.821-9.502c0-6.508-5.297-11.805-11.807-11.805c-1.867,0-3.627,0.447-5.199,1.223
			c0.345,1.564,0.529,3.184,0.529,4.852c0,4.68-1.484,9.219-4.137,12.988c10.448,6.572,14.981,18.07,16.944,26.81h11.923
			c0.315,0,0.618-0.131,0.836-0.361c0.215-0.23,0.325-0.541,0.305-0.857C96.688,65.812,94.805,51.144,82.761,46.861z"/>
		<path d="M29.976,44.617c-2.654-3.748-4.104-8.238-4.104-12.988c0-1.668,0.188-3.287,0.531-4.852
			c-1.572-0.775-3.332-1.223-5.199-1.223c-6.51,0-11.807,5.297-11.807,11.805c0,3.775,1.754,7.236,4.816,9.496
			C2.172,51.113,0.291,65.806,0.002,70.207c-0.021,0.316,0.09,0.627,0.307,0.857c0.217,0.229,0.52,0.36,0.836,0.36H13.06
			C15.019,62.685,19.543,51.179,29.976,44.617z"/>
	</g>
</g>
<g>
</g>
<g>
</g>
<g>
</g>
<g>
</g>
<g>
</g>
<g>
</g>
<g>
</g>
<g>
</g>
<g>
</g>
<g>
</g>
<g>
</g>
<g>
</g>
<g>
</g>
<g>
</g>
<g>
</g>
</svg>
