<?xml version="1.0" standalone="no"?>
<!DOCTYPE svg PUBLIC "-//W3C//DTD SVG 20010904//EN"
 "http://www.w3.org/TR/2001/REC-SVG-20010904/DTD/svg10.dtd">
<svg version="1.0" xmlns="http://www.w3.org/2000/svg"
 width="500.000000pt" height="500.000000pt" viewBox="0 0 500.000000 500.000000"
 preserveAspectRatio="xMidYMid meet">

<g transform="translate(0.000000,500.000000) scale(0.100000,-0.100000)"
fill="#000000" stroke="none">
<path d="M3083 2761 c-90 -23 -136 -80 -136 -167 0 -80 31 -120 134 -174 126
-66 154 -105 109 -150 -26 -26 -105 -26 -180 0 -30 11 -58 19 -62 20 -5 0 -8
-25 -8 -56 0 -54 1 -55 38 -71 25 -11 67 -17 127 -17 78 0 96 3 135 24 61 34
90 80 90 142 0 92 -37 137 -170 203 -71 35 -90 53 -90 82 0 58 76 80 165 48
22 -8 44 -15 48 -15 8 0 50 90 45 95 -2 2 -25 10 -52 19 -59 20 -150 28 -193
17z"/>
<path d="M810 2455 l0 -307 138 5 c152 5 205 18 265 68 117 97 131 330 26 444
-64 70 -119 88 -286 93 l-143 5 0 -308z m315 153 c42 -46 59 -105 51 -182 -11
-112 -58 -158 -166 -164 l-70 -4 0 197 0 197 76 -4 c73 -3 77 -5 109 -40z"/>
<path d="M1440 2468 c-57 -161 -105 -299 -107 -305 -4 -10 13 -13 64 -13 l70
0 22 75 22 76 111 -3 112 -3 21 -70 21 -70 67 -3 c37 -2 67 1 67 5 0 5 -47
141 -104 303 l-104 295 -80 3 -79 3 -103 -293z m260 -60 c0 -5 -34 -8 -76 -8
l-76 0 6 32 c3 17 20 77 37 132 l31 100 39 -124 c21 -69 39 -128 39 -132z"/>
<path d="M1900 2705 l0 -55 85 0 85 0 0 -250 0 -250 60 0 60 0 0 250 0 250 85
0 85 0 0 55 0 55 -230 0 -230 0 0 -55z"/>
<path d="M2553 2743 c-4 -10 -53 -148 -109 -306 l-101 -288 69 3 70 3 22 70
22 70 110 3 110 3 24 -76 24 -75 69 0 c38 0 67 4 65 9 -1 4 -50 141 -108 305
l-104 296 -79 0 c-65 0 -79 -3 -84 -17z m122 -203 c19 -62 35 -119 35 -126 0
-11 -18 -14 -76 -14 -68 0 -76 2 -71 18 29 106 72 241 74 238 2 -2 19 -54 38
-116z"/>
<path d="M3410 2455 l0 -305 175 0 175 0 0 55 0 55 -110 0 -110 0 0 75 0 75
100 0 100 0 0 55 0 55 -100 0 -100 0 0 65 0 65 110 0 110 0 0 55 0 55 -175 0
-175 0 0 -305z"/>
<path d="M3790 2705 l0 -55 85 0 85 0 0 -250 0 -250 65 0 65 0 0 250 0 250 80
0 80 0 0 55 0 55 -230 0 -230 0 0 -55z"/>
</g>
</svg>
