<?xml version="1.0" encoding="UTF-8"?>
<svg xmlns="http://www.w3.org/2000/svg" xmlns:xlink="http://www.w3.org/1999/xlink" width="400pt" height="457pt" viewBox="0 0 400 457" version="1.1">
<g id="surface1">
<path style=" stroke:none;fill-rule:nonzero;fill:rgb(0%,0%,0%);fill-opacity:1;" d="M 0 128.550781 L 0 97.3125 C 0.59375 86.007812 5.058594 76.488281 13.390625 68.753906 C 21.726562 61.019531 31.546875 57.152344 42.855469 57.152344 L 85.707031 57.152344 L 85.707031 42.871094 C 85.707031 30.96875 89.875 20.855469 98.207031 12.523438 C 106.539062 4.195312 116.660156 0.0273438 128.5625 0.0273438 L 271.410156 0.0273438 C 283.316406 0.0273438 293.433594 4.195312 301.765625 12.523438 C 310.097656 20.855469 314.265625 30.96875 314.265625 42.871094 L 314.265625 57.152344 L 357.121094 57.152344 C 368.429688 57.152344 378.25 61.019531 386.582031 68.753906 C 394.914062 76.488281 399.378906 86.007812 399.972656 97.3125 L 399.972656 128.550781 C 399.972656 136.289062 397.148438 142.980469 391.492188 148.632812 C 385.839844 154.285156 379.144531 157.113281 371.40625 157.113281 L 371.40625 399.878906 C 371.40625 415.945312 365.898438 429.480469 354.886719 440.488281 C 343.878906 451.496094 330.335938 457 314.265625 457 L 85.707031 457 C 69.636719 457 56.097656 451.496094 45.085938 440.488281 C 34.074219 429.480469 28.570312 415.945312 28.570312 399.878906 L 28.570312 157.113281 C 20.832031 157.113281 14.136719 154.285156 8.480469 148.632812 C 2.828125 142.980469 0 136.289062 0 128.550781 Z M 28.570312 128.550781 L 371.40625 128.550781 L 371.40625 99.992188 C 371.40625 95.828125 370.066406 92.40625 367.386719 89.726562 C 364.707031 87.050781 361.285156 85.710938 357.121094 85.710938 L 42.855469 85.710938 C 38.6875 85.710938 35.265625 87.050781 32.585938 89.726562 C 29.90625 92.40625 28.570312 95.828125 28.570312 99.992188 Z M 57.140625 399.878906 C 57.140625 407.613281 59.964844 414.308594 65.621094 419.960938 C 71.273438 425.613281 77.972656 428.441406 85.707031 428.4375 L 314.265625 428.4375 C 322.003906 428.4375 328.699219 425.613281 334.355469 419.960938 C 340.007812 414.308594 342.835938 407.613281 342.835938 399.878906 L 342.835938 157.113281 L 57.140625 157.113281 Z M 85.707031 385.597656 L 85.707031 199.953125 C 85.707031 195.789062 87.046875 192.367188 89.726562 189.691406 C 92.40625 187.011719 95.828125 185.671875 99.992188 185.671875 L 128.5625 185.671875 C 132.730469 185.671875 136.152344 187.011719 138.832031 189.691406 C 141.507812 192.367188 142.847656 195.789062 142.847656 199.953125 L 142.847656 385.597656 C 142.847656 389.761719 141.507812 393.183594 138.832031 395.863281 C 136.152344 398.539062 132.730469 399.878906 128.5625 399.878906 L 99.992188 399.878906 C 95.828125 399.878906 92.40625 398.539062 89.726562 395.863281 C 87.046875 393.183594 85.707031 389.761719 85.707031 385.597656 Z M 99.992188 385.597656 L 128.5625 385.597656 L 128.5625 199.953125 L 99.992188 199.953125 Z M 114.277344 57.152344 L 285.695312 57.152344 L 285.695312 42.871094 C 285.695312 38.707031 284.355469 35.285156 281.679688 32.605469 C 279 29.929688 275.578125 28.589844 271.410156 28.589844 L 128.5625 28.589844 C 124.394531 28.589844 120.972656 29.929688 118.296875 32.605469 C 115.617188 35.285156 114.277344 38.707031 114.277344 42.871094 Z M 171.417969 385.597656 L 171.417969 199.953125 C 171.417969 195.789062 172.757812 192.367188 175.433594 189.691406 C 178.113281 187.011719 181.535156 185.671875 185.703125 185.671875 L 214.273438 185.671875 C 218.4375 185.671875 221.863281 187.011719 224.539062 189.691406 C 227.21875 192.367188 228.558594 195.789062 228.558594 199.953125 L 228.558594 385.597656 C 228.558594 389.761719 227.21875 393.183594 224.539062 395.863281 C 221.863281 398.539062 218.4375 399.878906 214.273438 399.878906 L 185.703125 399.878906 C 181.535156 399.878906 178.113281 398.539062 175.433594 395.863281 C 172.757812 393.183594 171.417969 389.761719 171.417969 385.597656 Z M 185.703125 385.597656 L 214.273438 385.597656 L 214.273438 199.953125 L 185.703125 199.953125 Z M 257.125 385.597656 L 257.125 199.953125 C 257.125 195.789062 258.464844 192.367188 261.144531 189.691406 C 263.824219 187.011719 267.246094 185.671875 271.410156 185.671875 L 299.980469 185.671875 C 304.148438 185.671875 307.570312 187.011719 310.25 189.691406 C 312.925781 192.367188 314.265625 195.789062 314.265625 199.953125 L 314.265625 385.597656 C 314.265625 389.761719 312.925781 393.183594 310.25 395.863281 C 307.570312 398.539062 304.148438 399.878906 299.980469 399.878906 L 271.410156 399.878906 C 267.246094 399.878906 263.824219 398.539062 261.144531 395.863281 C 258.464844 393.183594 257.125 389.761719 257.125 385.597656 Z M 271.410156 385.597656 L 299.980469 385.597656 L 299.980469 199.953125 L 271.410156 199.953125 Z M 271.410156 385.597656 "/>
</g>
</svg>
